# xmcd CD database file
# Copyright (C) 1993-1998 Ti Kan
#
# Track frame offsets:
#  150
#  11227
#  26030
#  38147
#  49170
#  59170
#  72725
#  87650
#  97672
#  110292
#  123525
#  139275
#  156495
#  167805
#  182250
#  192580
#  203645
#  214937
#  225430
#  240012
#
# Disc length: 3351 seconds
#
# Revision: 1
# Processed by: cddbd v1.4b41PL1 Copyright (c) Steve Scherf et al.
# Submitted via: CDWizzard Release:4.32
#
DISCID=200d1514
DTITLE=Willie Nelson - the very best of Willie Nelson
DYEAR=1900
DGENRE=
TTITLE0=Night Life
TTITLE1=Bloody Merry Morning
TTITLE2=Funny How Time Sleeps Away
TTITLE3=She's Still Gone
TTITLE4=Hello Walls
TTITLE5=Good Hearted Woman
TTITLE6=Little Things
TTITLE7=Mr. Record Man
TTITLE8=It Should Be Easier Now
TTITLE9=My Own Peculiar Way
TTITLE10=What Can You Do To Me Now
TTITLE11=Me And Paul
TTITLE12=Phases and Stages (Circles, Cycles and Scenes)
TTITLE13=Family Bible
TTITLE14=To Make A Long Story Short (She's Gone)
TTITLE15=Good Times
TTITLE16=Pretty Paper
TTITLE17=December Day
TTITLE18=Yesterday's Wine
TTITLE19=She's Not For You
EXTD=
EXTT0=
EXTT1=
EXTT2=
EXTT3=
EXTT4=
EXTT5=
EXTT6=
EXTT7=
EXTT8=
EXTT9=
EXTT10=
EXTT11=
EXTT12=
EXTT13=
EXTT14=
EXTT15=
EXTT16=
EXTT17=
EXTT18=
EXTT19=
PLAYORDER=
